<?xml version="1.0" encoding="utf-8"?><!DOCTYPE svg PUBLIC "-//W3C//DTD SVG 1.1//EN" "http://www.w3.org/Graphics/SVG/1.1/DTD/svg11.dtd"><svg viewBox="0 0 1488.12 1641.59" xmlns="http://www.w3.org/2000/svg" xmlns:xlink="http://www.w3.org/1999/xlink"><style>:root>svg{display:none}:root>svg:target{display:block}</style><svg viewBox="0 0 512 512" id="free-icon-svg-2567477" xmlns="http://www.w3.org/2000/svg"><path d="M477.397 104.371a6.206 6.206 0 00-.023-.469 9.992 9.992 0 00-3.469-6.953L363.495 2.404a9.962 9.962 0 00-5.541-2.337 5.636 5.636 0 00-.963-.067H142.308c-14.052 0-25.485 11.417-25.485 25.45v98.06c0 5.522 4.477 10 10 10s10-4.478 10-10V25.45c0-3.005 2.46-5.45 5.485-5.45h204.683v56.592c0 20.928 17.054 37.953 38.015 37.953h72.396v347.652c0 3.006-2.461 5.451-5.485 5.451h-62.536V350.813c0-16.237-13.229-29.447-29.491-29.447H136.823V213.349c0-5.522-4.477-10-10-10s-10 4.478-10 10v108.018H64.06c-16.246 0-29.462 13.21-29.462 29.447v131.768C34.598 498.803 47.815 512 64.06 512h295.829c14.529 0 26.629-10.538 29.044-24.352h62.983c14.053 0 25.485-11.417 25.485-25.451V104.545c.001-.062-.002-.115-.004-.174zm-92.391-9.826c-9.934 0-18.015-8.054-18.015-17.953V31.729l73.358 62.816zm-15.625 388.036c0 5.193-4.258 9.419-9.491 9.419H64.06c-5.218 0-9.462-4.226-9.462-9.419V350.813c0-5.209 4.245-9.447 9.462-9.447h295.829c5.145 0 9.491 4.326 9.491 9.447v131.768z"/><path d="M319.175 112.802H274.71c-5.522 0-10 4.478-10 10v17.045c-36.551 10.888-65.404 39.717-76.266 76.202h-16.899c-5.523 0-10 4.478-10 10v44.367c0 5.522 4.477 10 10 10h44.465c5.523 0 10-4.478 10-10v-44.367c0-5.522-4.477-10-10-10h-6.485c9.422-25.446 29.685-45.687 55.185-55.121v6.24c0 5.522 4.478 10 10 10h44.465c5.522 0 10-4.478 10-10v-6.352c25.671 9.37 46.06 29.658 55.507 55.233h-6.495c-5.522 0-10 4.478-10 10v44.367c0 5.522 4.478 10 10 10h44.465c5.522 0 10-4.478 10-10v-44.367c0-5.522-4.478-10-10-10h-16.894c-10.878-36.625-39.852-65.487-76.583-76.287v-16.96c0-5.523-4.478-10-10-10zM206.01 260.416h-24.465v-24.367h14.606l.036.002.045-.002h9.777v24.367zm103.165-113.03v9.781H284.71v-9.706-14.66h24.465zm79.012 88.663h9.777l.045.002.036-.002h14.606v24.367h-24.465v-24.367zM128.396 406.697h-4.773c-6.283 0-11.395-5.103-11.395-11.375 0-6.257 5.111-11.347 11.395-11.347h25.202c5.523 0 10-4.478 10-10s-4.477-10-10-10h-25.202c-17.311 0-31.395 14.063-31.395 31.347 0 17.3 14.083 31.375 31.395 31.375h4.773c6.283 0 11.395 5.09 11.395 11.347s-5.111 11.348-11.395 11.348h-26.168c-5.523 0-10 4.478-10 10s4.477 10 10 10h26.168c17.311 0 31.395-14.063 31.395-31.348-.001-17.284-14.084-31.347-31.395-31.347zM315.879 404.345h-5.853c-5.522 0-10 4.478-10 10s4.478 10 10 10h5.853c3.893 0 7.871.846 7.871 7.122v7.229c0 2.646 0 10.695-11.337 10.695h-22.19c-7.152 0-7.474-7.529-7.474-7.605v-46.89c0-6.736 3.539-10.921 9.235-10.921h34.18c5.522 0 10-4.478 10-10s-4.478-10-10-10h-34.18c-16.94 0-29.235 13.004-29.235 30.921v46.89c0 11.463 8.523 27.605 27.474 27.605h22.19c18.743 0 31.337-12.336 31.337-30.695v-7.229c0-15.969-11.461-27.122-27.871-27.122zM242.543 364.457c-5.255-1.692-10.891 1.198-12.583 6.454l-17.979 55.838-17.96-55.836c-1.691-5.257-7.325-8.146-12.582-6.457-5.258 1.691-8.149 7.324-6.458 12.582l27.475 85.416a10 10 0 009.518 6.938h.001a10 10 0 009.519-6.936l27.503-85.416c1.692-5.257-1.197-10.891-6.454-12.583zM126.823 178.443c5.523 0 10-4.478 10-10v-.057c0-5.522-4.477-9.972-10-9.972s-10 4.506-10 10.028 4.477 10.001 10 10.001z"/></svg><svg viewBox="0 0 64 64" id="free-icon-svg-file-2479183" xmlns="http://www.w3.org/2000/svg"><path d="M61 6H49.41l-3.7-3.71A1.033 1.033 0 0045 2H17a1 1 0 00-1 1v18H3a1 1 0 00-1 1v20a1 1 0 001 1h13v14a1 1 0 001 1h3v3a1 1 0 001 1h40a1 1 0 001-1V7a1 1 0 00-1-1zm-15-.59L54.59 14H47a1 1 0 01-1-1zM4 41V23h48v18zm14 15V43h35a1 1 0 001-1V22a1 1 0 00-1-1H18V4h26v9a3.009 3.009 0 003 3h9v40zm42 4H22v-2h35a1 1 0 001-1V15a1.033 1.033 0 00-.29-.71L51.41 8H60z"/><path d="M32 25h-3v2h1.613L28 34.838 25.387 27H27v-2h-3a1 1 0 00-.949 1.316l4 12a1 1 0 001.9 0l4-12A1 1 0 0032 25zM44 25h-8a1 1 0 00-1 1v12a1 1 0 001 1h8a1 1 0 001-1v-6a1 1 0 00-1-1h-4v2h3v4h-6V27h6v2h2v-3a1 1 0 00-1-1zM20 25h-8a1 1 0 00-1 1v6a1 1 0 001 1h7v4h-6v-2h-2v3a1 1 0 001 1h8a1 1 0 001-1v-6a1 1 0 00-1-1h-7v-4h6v2h2v-3a1 1 0 00-1-1z"/></svg><svg viewBox="0 0 55 55" id="ico1" xmlns="http://www.w3.org/2000/svg"><path d="M55 27.5C55 12.337 42.663 0 27.5 0S0 12.337 0 27.5c0 8.009 3.444 15.228 8.926 20.258l-.026.023.892.752c.058.049.121.089.179.137.474.393.965.766 1.465 1.127.162.117.324.234.489.348.534.368 1.082.717 1.642 1.048.122.072.245.142.368.212a27.44 27.44 0 001.88.98l.142.064a27.252 27.252 0 006.651 2.105l.184.033c.724.125 1.456.225 2.197.292.09.008.18.013.271.021.738.061 1.484.1 2.24.1.749 0 1.488-.039 2.222-.098l.279-.021a27.808 27.808 0 002.178-.287l.187-.034a27.251 27.251 0 006.557-2.055c.076-.035.153-.068.229-.104a27.639 27.639 0 002.25-1.189 27.514 27.514 0 001.581-1c.185-.126.366-.259.549-.391.439-.316.87-.642 1.289-.983.093-.075.193-.14.284-.217l.915-.764-.027-.023C51.523 42.802 55 35.55 55 27.5zm-53 0C2 13.439 13.439 2 27.5 2S53 13.439 53 27.5c0 7.577-3.325 14.389-8.589 19.063a7.494 7.494 0 00-.893-.537l-8.467-4.233a2.217 2.217 0 01-1.232-1.993v-2.957c.196-.242.403-.516.617-.817a20.378 20.378 0 002.616-5.123 3.63 3.63 0 002.085-3.289v-3.545c0-.867-.318-1.708-.887-2.369v-4.667c.052-.519.236-3.448-1.883-5.864C34.524 9.065 31.541 8 27.5 8s-7.024 1.065-8.867 3.168c-2.119 2.416-1.935 5.345-1.883 5.864v4.667a3.644 3.644 0 00-.887 2.369v3.545c0 1.101.494 2.128 1.34 2.821.81 3.173 2.477 5.575 3.093 6.389v2.894a2.23 2.23 0 01-1.162 1.958l-7.907 4.313a7.227 7.227 0 00-.752.476C5.276 41.792 2 35.022 2 27.5zm40.459 20.632c-.35.254-.706.5-1.067.735-.166.108-.331.216-.5.321-.472.292-.952.57-1.442.83-.108.057-.217.111-.326.167a25.481 25.481 0 01-3.488 1.476l-.127.043c-.627.208-1.262.393-1.904.552l-.006.001a25.59 25.59 0 01-1.964.402l-.054.01c-.621.101-1.247.174-1.875.229-.111.01-.222.017-.334.025-.621.047-1.245.077-1.872.077a25.43 25.43 0 01-1.895-.078c-.109-.008-.218-.015-.326-.025a25.862 25.862 0 01-1.89-.233l-.084-.015a25.405 25.405 0 01-3.89-.971l-.118-.04a25.86 25.86 0 01-1.862-.713l-.013-.006a26.094 26.094 0 01-1.705-.816c-.073-.038-.147-.074-.219-.113a25.7 25.7 0 01-1.939-1.155 25.417 25.417 0 01-1.338-.933l-.133-.104.096-.054 7.907-4.313a4.229 4.229 0 002.205-3.714l-.001-3.602-.23-.278c-.022-.025-2.184-2.655-3.001-6.216l-.091-.396-.341-.221a1.657 1.657 0 01-.769-1.392v-3.545c0-.465.197-.898.557-1.223l.33-.298v-5.57l-.009-.131c-.003-.024-.298-2.429 1.396-4.36C21.583 10.837 24.061 10 27.5 10c3.426 0 5.896.83 7.346 2.466 1.692 1.911 1.415 4.361 1.413 4.381l-.009 5.701.33.298c.359.324.557.758.557 1.223v3.545a1.67 1.67 0 01-1.181 1.575l-.497.153-.16.495a18.5 18.5 0 01-2.496 5.032c-.262.37-.517.698-.736.949l-.248.283V39.8c0 1.612.896 3.062 2.338 3.782l8.467 4.233.16.083c-.107.081-.217.156-.325.234z"/></svg><svg viewBox="0 0 1488.122 1641.591" id="new1" xmlns="http://www.w3.org/2000/svg"><path d="M400.057 939.451c-.769 0-32.815 24.61-33.433 25.068-44.219 32.778-38.804 28.08-36.872 33.959 3.797 11.592-5.461 9.409 1.838 16.404 5.532 5.313 63.608 54.699 70.935 50.315 4.219-2.52 68.775-48.156 68.775-54.162 0-4.747-5.624-3.33 1.047-16.328-8.684-8.238-72.057-55.256-72.29-55.256zM393.028 933.587c-3.049-7.579-2.984-7.479-2.984-9.256h-.355c0-14.043 18.789 1.101-42.622-44.92-26.696-20.017-24.279-18.552-26.565-19.606v.725c-3.746 2.186-9.929 7.073-14.547 10.701-69.642 54.652-55.846 37.013-54.19 53.1-1.32 11.118-7.257 5.767 9.838 19.852 1.778 1.467 32.196 28.028 58.898 44.252v.365c1.779-.816 44.122-29.716 72.527-55.213zM708.817 933.587c-3.049-7.579-2.984-7.479-2.984-9.256h-.355c0-14.043 18.789 1.101-42.622-44.92-26.696-20.017-24.279-18.552-26.565-19.606v.725c-3.746 2.186-9.929 7.073-14.547 10.701-69.642 54.652-55.846 37.013-54.19 53.1-1.32 11.118-7.257 5.767 9.838 19.852 1.778 1.467 32.196 28.028 58.898 44.252v.365c1.779-.816 44.122-29.716 72.527-55.213zM550.922 933.587c-3.049-7.579-2.984-7.479-2.984-9.256h-.355c0-14.043 18.789 1.101-42.622-44.92-26.696-20.017-24.279-18.552-26.565-19.606v.725c-3.746 2.186-9.929 7.073-14.547 10.701-69.642 54.652-55.846 37.013-54.19 53.1-1.32 11.118-7.257 5.767 9.838 19.852 1.779 1.467 32.196 28.028 58.898 44.252v.365c1.78-.816 44.122-29.716 72.527-55.213zM242.163 939.451c-.769 0-32.815 24.61-33.433 25.068-44.219 32.778-38.804 28.08-36.872 33.959 3.797 11.592-5.461 9.409 1.838 16.404 5.532 5.313 63.608 54.699 70.935 50.315 4.219-2.52 68.775-48.156 68.775-54.162 0-4.747-5.624-3.33 1.047-16.328-8.685-8.238-72.057-55.256-72.29-55.256zM112.343 1118.196c-.325 3.738.71 7.482 3.758 11.174 11.816 13.642 26.939 28.581 34.725 45.37 2.934-2.761 4.686-4.824 4.686-5.811 0-4.747-5.624-3.33 1.047-16.328-4.765-4.519-25.988-20.709-44.216-34.405zM347.066 563.621c-26.696-20.017-24.279-18.552-26.565-19.606v.725c-3.746 2.186-9.929 7.073-14.547 10.701-69.642 54.652-55.846 37.013-54.19 53.1-1.32 11.118-7.257 5.767 9.838 19.852 1.778 1.467 32.196 28.028 58.898 44.252v.365c1.779-.815 44.121-29.715 72.527-55.213-3.049-7.579-2.984-7.479-2.984-9.256h-.355c0-14.043 18.789 1.101-42.622-44.92zM235.133 1091.481c-3.049-7.579-2.984-7.479-2.984-9.256h-.355c0-14.043 18.789 1.101-42.622-44.92-26.696-20.018-24.279-18.552-26.565-19.606v.725c-3.746 2.186-9.929 7.073-14.547 10.701-12.623 9.906-22.493 17.427-30.202 23.214 6.307 5.577 13.885 10.438 21.135 16.288 12.094 9.533-16.293 25.548-24.544 42.476 11.586 9.54 30.668 24.6 48.158 35.227v.365c1.779-.816 44.121-29.716 72.526-55.214zM504.96 721.516c-26.696-20.017-24.279-18.552-26.565-19.606v.725c-3.746 2.186-9.929 7.073-14.547 10.701-69.642 54.652-55.846 37.013-54.19 53.101-1.32 11.118-7.257 5.767 9.838 19.852 1.779 1.467 32.196 28.028 58.898 44.252v.365c1.779-.815 44.122-29.715 72.527-55.213-3.049-7.579-2.984-7.479-2.984-9.256h-.355c.001-14.044 18.789 1.1-42.622-44.921zM866.711 933.587c-3.049-7.579-2.984-7.479-2.984-9.256h-.355c0-14.043 18.789 1.101-42.623-44.92-26.696-20.017-24.279-18.552-26.565-19.606v.725c-3.745 2.186-9.929 7.073-14.547 10.701-69.642 54.652-55.846 37.013-54.19 53.1-1.32 11.118-7.257 5.767 9.838 19.852 1.778 1.467 32.196 28.028 58.898 44.252v.365c1.781-.816 44.123-29.716 72.528-55.213zM216.484 426.193a467.466 467.466 0 00-7.34 40.98 147.415 147.415 0 00-1.216 15.24c9.351-7.267 18.877-15.034 27.205-22.51-3.049-7.579-2.984-7.479-2.984-9.256h-.355c0-11.331 12.221-3.668-15.31-24.454zM347.066 405.727c-26.696-20.017-24.279-18.552-26.565-19.606v.725c-3.746 2.186-9.929 7.073-14.547 10.701-69.642 54.652-55.846 37.013-54.19 53.101-1.32 11.118-7.257 5.767 9.838 19.852 1.778 1.467 32.196 28.028 58.898 44.252v.365c1.779-.815 44.121-29.715 72.527-55.213-3.049-7.579-2.984-7.479-2.984-9.256h-.355c0-14.044 18.789 1.1-42.622-44.921zM504.96 563.621c-26.696-20.017-24.279-18.552-26.565-19.606v.725c-3.746 2.186-9.929 7.073-14.547 10.701-69.642 54.652-55.846 37.013-54.19 53.1-1.32 11.118-7.257 5.767 9.838 19.852 1.779 1.467 32.196 28.028 58.898 44.252v.365c1.779-.815 44.122-29.715 72.527-55.213-3.049-7.579-2.984-7.479-2.984-9.256h-.355c.001-14.043 18.789 1.101-42.622-44.92zM662.855 563.621c-26.696-20.017-24.279-18.552-26.565-19.606v.725c-3.746 2.186-9.929 7.073-14.547 10.701-69.642 54.652-55.846 37.013-54.19 53.1-1.32 11.118-7.257 5.767 9.838 19.852 1.778 1.467 32.196 28.028 58.898 44.252v.365c1.779-.815 44.121-29.715 72.527-55.213-3.049-7.579-2.984-7.479-2.984-9.256h-.355c0-14.043 18.789 1.101-42.622-44.92zM128.927 1288.629c-4.595 21.085-4.949 40.955 4.698 58.271 12.153-9.437 21.887-17.744 21.887-20.076 0-4.747-5.624-3.33 1.047-16.328-3.345-3.172-14.799-12.094-27.632-21.867zM820.749 563.621c-26.696-20.017-24.279-18.552-26.565-19.606v.725c-3.745 2.186-9.929 7.073-14.547 10.701-69.642 54.652-55.846 37.013-54.19 53.1-1.32 11.118-7.257 5.767 9.838 19.852 1.778 1.467 32.196 28.028 58.898 44.252v.365c1.779-.815 44.121-29.715 72.527-55.213-3.049-7.579-2.984-7.479-2.984-9.256h-.355c.001-14.043 18.789 1.101-42.622-44.92zM1340.395 933.587c-3.049-7.579-2.984-7.479-2.984-9.256h-.355c0-14.043 18.789 1.101-42.622-44.92-26.696-20.017-24.279-18.552-26.565-19.606v.725c-3.745 2.186-9.929 7.073-14.547 10.701-69.642 54.652-55.846 37.013-54.19 53.1-1.32 11.118-7.257 5.767 9.838 19.852 1.778 1.467 32.196 28.028 58.898 44.252v.365c1.779-.816 44.122-29.716 72.527-55.213zM235.133 1249.376c-3.049-7.579-2.984-7.479-2.984-9.256h-.355c0-14.043 18.789 1.102-42.622-44.92-26.696-20.017-24.279-18.552-26.565-19.606v.725c-2.312 1.35-5.553 3.729-8.782 6.205 2.601 8.515 3.062 17.492.089 27.006-7.086 24.207-17.41 48.893-23.374 72.291 9.872 7.597 21.272 15.844 32.067 22.403v.365c1.779-.815 44.121-29.715 72.526-55.213zM1452.327 721.516c-26.696-20.017-24.279-18.552-26.565-19.606v.725c-3.746 2.186-9.929 7.073-14.547 10.701-69.642 54.652-55.846 37.013-54.19 53.101-1.32 11.118-7.257 5.767 9.838 19.852 1.779 1.467 32.196 28.028 58.898 44.252v.365c.241-.11 1.228-.738 2.817-1.797 11.803-35.412 20.982-70.362 27.613-104.697l-3.864-2.896zM1278.957 1014.881c2.528 2.427 16.026 14.057 30.641 25.554 19.027-29.715 39.954-57.889 58.584-85.618-11.667-8.726-20.671-15.366-20.758-15.366-.769 0-32.815 24.61-33.433 25.068-44.219 32.778-38.804 28.08-36.872 33.959 3.797 11.591-5.461 9.408 1.838 16.403zM1182.5 933.587c-3.049-7.579-2.984-7.479-2.984-9.256h-.355c0-14.043 18.789 1.101-42.622-44.92-26.696-20.017-24.279-18.552-26.565-19.606v.725c-3.746 2.186-9.929 7.073-14.547 10.701-69.642 54.652-55.846 37.013-54.19 53.1-1.32 11.118-7.257 5.767 9.838 19.852 1.778 1.467 32.196 28.028 58.898 44.252v.365c1.78-.816 44.122-29.716 72.527-55.213zM400.057 623.661c-.769 0-32.815 24.61-33.433 25.068-44.219 32.778-38.804 28.08-36.872 33.959 3.797 11.592-5.461 9.409 1.838 16.404 5.532 5.313 63.608 54.699 70.935 50.315 4.219-2.52 68.775-48.156 68.775-54.162 0-4.747-5.624-3.33 1.047-16.328-8.684-8.237-72.057-55.256-72.29-55.256zM820.749 721.516c-26.696-20.017-24.279-18.552-26.565-19.606v.725c-3.745 2.186-9.929 7.073-14.547 10.701-69.642 54.652-55.846 37.013-54.19 53.101-1.32 11.118-7.257 5.767 9.838 19.852 1.778 1.467 32.196 28.028 58.898 44.252v.365c1.779-.815 44.121-29.715 72.527-55.213-3.049-7.579-2.984-7.479-2.984-9.256h-.355c.001-14.044 18.789 1.1-42.622-44.921zM662.855 721.516c-26.696-20.017-24.279-18.552-26.565-19.606v.725c-3.746 2.186-9.929 7.073-14.547 10.701-69.642 54.652-55.846 37.013-54.19 53.101-1.32 11.118-7.257 5.767 9.838 19.852 1.778 1.467 32.196 28.028 58.898 44.252v.365c1.779-.815 44.121-29.715 72.527-55.213-3.049-7.579-2.984-7.479-2.984-9.256h-.355c0-14.044 18.789 1.1-42.622-44.921zM242.163 465.767c-.769 0-32.815 24.61-33.433 25.068l-.761.564c.668 18.387 4.978 36.921 13.617 55.936-4.441 6.934-9.33 14.123-14.571 21.513 16.592 12.907 33.839 24.923 37.615 22.665 4.219-2.52 68.775-48.156 68.775-54.162 0-4.747-5.624-3.33 1.047-16.328-8.684-8.238-72.056-55.256-72.289-55.256zM560.42 907.302c4.219-2.52 68.775-48.156 68.775-54.162 0-4.747-5.623-3.33 1.047-16.328-8.685-8.237-72.057-55.256-72.29-55.256-.769 0-32.814 24.61-33.433 25.068-44.218 32.778-38.804 28.08-36.872 33.959 3.797 11.592-5.461 9.408 1.838 16.404 5.532 5.312 63.608 54.698 70.935 50.315zM718.314 907.302c4.219-2.52 68.775-48.156 68.775-54.162 0-4.747-5.624-3.33 1.046-16.328-8.684-8.237-72.057-55.256-72.29-55.256-.769 0-32.815 24.61-33.433 25.068-44.219 32.778-38.804 28.08-36.872 33.959 3.797 11.592-5.461 9.408 1.838 16.404 5.534 5.312 63.609 54.698 70.936 50.315zM1340.395 775.692c-3.049-7.579-2.984-7.479-2.984-9.256h-.355c0-14.043 18.789 1.101-42.622-44.92-26.696-20.017-24.279-18.552-26.565-19.606v.725c-3.745 2.186-9.929 7.073-14.547 10.701-69.642 54.652-55.846 37.013-54.19 53.101-1.32 11.118-7.257 5.767 9.838 19.852 1.778 1.467 32.196 28.028 58.898 44.252v.365c1.779-.816 44.122-29.716 72.527-55.214zM876.209 907.302c4.219-2.52 68.775-48.156 68.775-54.162 0-4.747-5.624-3.33 1.047-16.328-8.684-8.237-72.057-55.256-72.29-55.256-.769 0-32.815 24.61-33.433 25.068-44.219 32.778-38.804 28.08-36.872 33.959 3.797 11.592-5.461 9.408 1.838 16.404 5.532 5.312 63.608 54.698 70.935 50.315zM1278.957 856.986c5.532 5.313 63.608 54.699 70.935 50.315 4.219-2.52 68.775-48.156 68.775-54.162 0-4.747-5.624-3.33 1.047-16.328-8.685-8.237-72.057-55.256-72.29-55.256-.769 0-32.815 24.61-33.433 25.068-44.219 32.778-38.804 28.08-36.872 33.959 3.797 11.592-5.461 9.409 1.838 16.404zM1366.864 944.183c.408.336 2.336 2.004 5.367 4.553 15.066-22.814 28.363-45.381 37.531-68.312a955.144 955.144 0 004.557-11.629c-1.079.843-2.128 1.667-3.104 2.435-69.642 54.652-55.846 37.013-54.19 53.1-1.319 11.119-7.256 5.768 9.839 19.853zM203.226 574.141c-18.694 25.885-41.383 54.045-64.366 82.373 7.687 5.67 15.876 11.35 23.746 16.132v.365c1.779-.815 44.122-29.715 72.527-55.213-3.049-7.579-2.984-7.479-2.984-9.256h-.355c0-12.842 15.697-1.288-28.568-34.401zM235.133 933.587c-3.049-7.579-2.984-7.479-2.984-9.256h-.355c0-14.043 18.789 1.101-42.622-44.92-26.696-20.017-24.279-18.552-26.565-19.606v.725c-3.746 2.186-9.929 7.073-14.547 10.701-21.29 16.707-34.772 26.652-43.198 32.876 12.538 1.701 24.221 3.932 32.636 14.158 9.832 12.298-3.156 32.855-6.351 48.233 9.731 7.467 20.884 15.512 31.46 21.938v.365c1.779-.817 44.121-29.717 72.526-55.214zM400.057 781.556c-.769 0-32.815 24.61-33.433 25.068-44.219 32.778-38.804 28.08-36.872 33.959 3.797 11.592-5.461 9.408 1.838 16.404 5.532 5.313 63.608 54.699 70.935 50.315 4.219-2.52 68.775-48.156 68.775-54.162 0-4.747-5.624-3.33 1.047-16.328-8.684-8.237-72.057-55.256-72.29-55.256zM130.182 973.795c-4.9 21.052-29.224 33.268-26.517 54.502 1.155 7.697 4.396 13.605 8.821 18.681 19.561-14.298 43.026-32.323 43.026-35.944 0-4.747-5.624-3.33 1.047-16.328-3.236-3.067-14.058-11.516-26.377-20.911zM242.163 781.556c-.769 0-32.815 24.61-33.433 25.068-44.219 32.778-38.804 28.08-36.872 33.959 3.797 11.592-5.461 9.408 1.838 16.404 5.532 5.313 63.608 54.699 70.935 50.315 4.219-2.52 68.775-48.156 68.775-54.162 0-4.747-5.624-3.33 1.047-16.328-8.685-8.237-72.057-55.256-72.29-55.256zM393.028 775.692c-3.049-7.579-2.984-7.479-2.984-9.256h-.355c0-14.043 18.789 1.101-42.622-44.92-26.696-20.017-24.279-18.552-26.565-19.606v.725c-3.746 2.186-9.929 7.073-14.547 10.701-69.642 54.652-55.846 37.013-54.19 53.101-1.32 11.118-7.257 5.767 9.838 19.852 1.778 1.467 32.196 28.028 58.898 44.252v.365c1.779-.816 44.122-29.716 72.527-55.214zM84.268 781.556c-.769 0-32.815 24.61-33.433 25.068-15.162 11.239-24.487 18.071-30.119 22.435a67.244 67.244 0 00-1.139 5.061c-6.968 38.337 38.311 51.78 60.206 65.224 4.577 1.527 9.249 2.48 13.901 3.216 17.653-12.366 61.827-44.451 61.827-49.42 0-4.747-5.624-3.33 1.047-16.328-8.685-8.237-72.057-55.256-72.29-55.256zM74.255 766.436H73.9c0-10.018 9.554-5.188-7.262-18.302-18.853 25.771-33.992 49.424-41.883 68.946 15.19-10.926 36.143-26.719 52.485-41.389-3.05-7.578-2.985-7.479-2.985-9.255zM242.163 623.661c-.769 0-32.815 24.61-33.433 25.068-44.219 32.778-38.804 28.08-36.872 33.959 3.797 11.592-5.461 9.409 1.838 16.404 5.532 5.313 63.608 54.699 70.935 50.315 4.219-2.52 68.775-48.156 68.775-54.162 0-4.747-5.624-3.33 1.047-16.328-8.685-8.237-72.057-55.256-72.29-55.256zM134.79 661.53c-22.409 27.606-44.879 55.247-64.001 80.979 7.801 5.105 13.885 8.132 15.948 6.898 4.219-2.52 68.775-48.156 68.775-54.162 0-4.747-5.624-3.33 1.047-16.328-2.825-2.678-11.432-9.458-21.769-17.387zM235.133 775.692c-3.049-7.579-2.984-7.479-2.984-9.256h-.355c0-14.043 18.789 1.101-42.622-44.92-26.696-20.017-24.279-18.552-26.565-19.606v.725c-3.746 2.186-9.929 7.073-14.547 10.701-69.642 54.652-55.846 37.013-54.19 53.101-1.32 11.118-7.257 5.767 9.838 19.852 1.778 1.467 32.196 28.028 58.898 44.252v.365c1.78-.816 44.122-29.716 72.527-55.214zM1024.606 933.587c-3.049-7.579-2.984-7.479-2.984-9.256h-.355c0-14.043 18.789 1.101-42.622-44.92-26.696-20.017-24.279-18.552-26.565-19.606v.725c-3.746 2.186-9.929 7.073-14.547 10.701-69.642 54.652-55.846 37.013-54.19 53.1-1.32 11.118-7.257 5.767 9.838 19.852 1.778 1.467 32.196 28.028 58.898 44.252v.365c1.779-.816 44.122-29.716 72.527-55.213zM1208.97 1259.973c1.623 1.339 27.115 23.589 51.86 39.799-4.81-44.752-7.458-84.313-6.788-113.318l-.72.566c-69.642 54.652-55.846 37.013-54.19 53.101-1.321 11.118-7.257 5.766 9.838 19.852zM329.506 208.345c.085.205.169.423.246.659 3.797 11.591-5.461 9.408 1.838 16.404 5.532 5.313 63.608 54.699 70.935 50.315 4.219-2.52 68.775-48.156 68.775-54.162 0-4.747-5.624-3.33 1.047-16.328-8.685-8.237-72.057-55.256-72.29-55.256-.769 0-32.815 24.61-33.433 25.068-7.712 5.717-13.911 10.291-18.886 13.983a505.9 505.9 0 00-18.232 19.317zM866.711 1407.271c-3.049-7.579-2.984-7.48-2.984-9.256h-.355c0-14.043 18.789 1.101-42.623-44.92-26.696-20.017-24.279-18.552-26.565-19.606v.725c-3.745 2.186-9.929 7.073-14.547 10.701-69.642 54.652-55.846 37.013-54.19 53.1-1.32 11.119-7.257 5.767 9.838 19.852 1.778 1.467 32.196 28.028 58.898 44.252v.365c1.781-.815 44.123-29.716 72.528-55.213zM1281.985 1452.883c-6.433-39.54-12.272-79.388-16.937-116.85-3.602 2.482-8.136 6.059-11.728 8.881-69.642 54.652-55.846 37.013-54.19 53.1-1.32 11.119-7.257 5.767 9.838 19.852 1.778 1.467 32.196 28.028 58.898 44.252v.365c.617-.281 6.072-3.914 14.119-9.6zM1182.5 1407.271c-3.049-7.579-2.984-7.48-2.984-9.256h-.355c0-14.043 18.789 1.101-42.622-44.92-26.696-20.017-24.279-18.552-26.565-19.606v.725c-3.746 2.186-9.929 7.073-14.547 10.701-69.642 54.652-55.846 37.013-54.19 53.1-1.32 11.119-7.257 5.767 9.838 19.852 1.778 1.467 32.196 28.028 58.898 44.252v.365c1.78-.815 44.122-29.716 72.527-55.213zM1024.606 1407.271c-3.049-7.579-2.984-7.48-2.984-9.256h-.355c0-14.043 18.789 1.101-42.622-44.92-26.696-20.017-24.279-18.552-26.565-19.606v.725c-3.746 2.186-9.929 7.073-14.547 10.701-69.642 54.652-55.846 37.013-54.19 53.1-1.32 11.119-7.257 5.767 9.838 19.852 1.778 1.467 32.196 28.028 58.898 44.252v.365c1.779-.815 44.122-29.716 72.527-55.213zM820.749 247.832c-26.696-20.017-24.279-18.552-26.565-19.606v.725c-3.745 2.186-9.929 7.073-14.547 10.701-69.642 54.652-55.846 37.013-54.19 53.1-1.32 11.118-7.257 5.767 9.838 19.852 1.778 1.467 32.196 28.028 58.898 44.252v.365c1.779-.815 44.121-29.715 72.527-55.213-3.049-7.578-2.984-7.479-2.984-9.256h-.355c.001-14.043 18.789 1.101-42.622-44.92zM504.96 247.832c-26.696-20.017-24.279-18.552-26.565-19.606v.725c-3.746 2.186-9.929 7.073-14.547 10.701-69.642 54.652-55.846 37.013-54.19 53.1-1.32 11.118-7.257 5.767 9.838 19.852 1.779 1.467 32.196 28.028 58.898 44.252v.365c1.779-.815 44.122-29.715 72.527-55.213-3.049-7.578-2.984-7.479-2.984-9.256h-.355c.001-14.043 18.789 1.101-42.622-44.92zM1199.131 134.857c-1.32 11.118-7.257 5.767 9.838 19.852 1.778 1.467 32.196 28.028 58.898 44.252v.365c.807-.37 9.956-6.516 22.365-15.501-26.604-23.264-56.014-44.407-88.14-63.18-8.756 6.815-3.902 5.07-2.961 14.212zM662.855 247.832c-26.696-20.017-24.279-18.552-26.565-19.606v.725c-3.746 2.186-9.929 7.073-14.547 10.701-69.642 54.652-55.846 37.013-54.19 53.1-1.32 11.118-7.257 5.767 9.838 19.852 1.778 1.467 32.196 28.028 58.898 44.252v.365c1.779-.815 44.121-29.715 72.527-55.213-3.049-7.578-2.984-7.479-2.984-9.256h-.355c0-14.043 18.789 1.101-42.622-44.92zM708.817 1407.271c-3.049-7.579-2.984-7.48-2.984-9.256h-.355c0-14.043 18.789 1.101-42.622-44.92-26.696-20.017-24.279-18.552-26.565-19.606v.725c-3.746 2.186-9.929 7.073-14.547 10.701-69.642 54.652-55.846 37.013-54.19 53.1-1.32 11.119-7.257 5.767 9.838 19.852 1.778 1.467 32.196 28.028 58.898 44.252v.365c1.779-.815 44.122-29.716 72.527-55.213zM1024.606 1565.165c-3.049-7.578-2.984-7.479-2.984-9.256h-.355c0-14.042 18.789 1.102-42.622-44.92-26.696-20.017-24.279-18.552-26.565-19.606v.725c-3.746 2.186-9.929 7.073-14.547 10.7-69.642 54.652-55.846 37.013-54.19 53.101-1.32 11.119-7.257 5.767 9.838 19.852 1.778 1.467 32.196 28.028 58.898 44.252v.365c1.779-.815 44.122-29.715 72.527-55.213zM1278.957 1488.565c1.25 1.2 5.186 4.653 10.607 9.223a3896.734 3896.734 0 01-6.239-36.726c-10.148 7.913-7.454 7.302-6.206 11.099 3.797 11.592-5.461 9.409 1.838 16.404zM866.711 1565.165c-3.049-7.578-2.984-7.479-2.984-9.256h-.355c0-14.042 18.79 1.102-42.623-44.92-26.696-20.017-24.279-18.552-26.565-19.606v.725c-3.745 2.186-9.929 7.073-14.547 10.7-69.642 54.652-55.846 37.013-54.19 53.101-1.32 11.119-7.257 5.767 9.838 19.852 1.778 1.467 32.196 28.028 58.898 44.252v.365c1.781-.815 44.123-29.715 72.528-55.213zM1307.306 1592.202c-5.282-26.131-10.633-54.317-15.803-83.411-23.574-17.7-21.437-16.394-23.635-17.407v.725c-3.745 2.186-9.929 7.073-14.547 10.7-69.642 54.652-55.846 37.013-54.19 53.101-1.32 11.119-7.257 5.767 9.838 19.852 1.778 1.467 32.196 28.028 58.898 44.252v.365c1.149-.526 19.168-12.735 39.439-28.177zM1182.5 1565.165c-3.049-7.578-2.984-7.479-2.984-9.256h-.355c0-14.042 18.79 1.102-42.622-44.92-26.696-20.017-24.279-18.552-26.565-19.606v.725c-3.746 2.186-9.929 7.073-14.547 10.7-69.642 54.652-55.846 37.013-54.19 53.101-1.32 11.119-7.257 5.767 9.838 19.852 1.778 1.467 32.196 28.028 58.898 44.252v.365c1.78-.815 44.122-29.715 72.527-55.213zM708.817 1565.165c-3.049-7.578-2.984-7.479-2.984-9.256h-.355c0-14.042 18.79 1.102-42.622-44.92-26.696-20.017-24.279-18.552-26.565-19.606v.725c-3.746 2.186-9.929 7.073-14.547 10.7-69.642 54.652-55.846 37.013-54.19 53.101-1.32 11.119-7.257 5.767 9.838 19.852 1.778 1.467 32.196 28.028 58.898 44.252v.365c1.779-.815 44.122-29.715 72.527-55.213zM961.33 51.109c3.797 11.591-5.461 9.408 1.838 16.404 5.532 5.313 63.608 54.699 70.935 50.315 3.391-2.025 45.74-31.891 62.245-46.661-38.892-14.255-80.576-25.721-124.957-34.111-14.62 11.058-11.447 9.837-10.061 14.053zM820.749 89.937c-26.696-20.017-24.279-18.552-26.565-19.606v.725c-3.745 2.186-9.929 7.073-14.547 10.701-69.642 54.652-55.846 37.013-54.19 53.101-1.32 11.118-7.257 5.767 9.838 19.852 1.778 1.467 32.196 28.028 58.898 44.252v.365c1.779-.815 44.121-29.715 72.527-55.213-3.049-7.578-2.984-7.479-2.984-9.256h-.355c.001-14.044 18.789 1.1-42.622-44.921zM504.96 89.937a4908.976 4908.976 0 01-7.943-5.967c-31.73 15.16-60.914 32.676-87.538 52.124-1.577 9.479-6.401 5.088 10.017 18.615 1.779 1.467 32.196 28.028 58.898 44.252v.365c1.779-.815 44.122-29.715 72.527-55.213-3.049-7.578-2.984-7.479-2.984-9.256h-.355c.001-14.043 18.789 1.101-42.622-44.92zM662.855 89.937c-26.696-20.017-24.279-18.552-26.565-19.606v.725c-3.746 2.186-9.929 7.073-14.547 10.701-69.642 54.652-55.846 37.013-54.19 53.101-1.32 11.118-7.257 5.767 9.838 19.852 1.778 1.467 32.196 28.028 58.898 44.252v.365c1.779-.815 44.121-29.715 72.527-55.213-3.049-7.578-2.984-7.479-2.984-9.256h-.355c0-14.044 18.789 1.1-42.622-44.921zM866.711 1091.481c-3.049-7.579-2.984-7.479-2.984-9.256h-.355c0-14.043 18.789 1.101-42.623-44.92-26.696-20.018-24.279-18.552-26.565-19.606v.725c-3.745 2.186-9.929 7.073-14.547 10.701-69.642 54.652-55.846 37.013-54.19 53.101-1.32 11.118-7.257 5.767 9.838 19.852 1.778 1.467 32.196 28.028 58.898 44.252v.365c1.781-.816 44.123-29.716 72.528-55.214zM1182.5 1249.376c-3.049-7.579-2.984-7.479-2.984-9.256h-.355c0-14.043 18.789 1.102-42.622-44.92-26.696-20.017-24.279-18.552-26.565-19.606v.725c-3.746 2.186-9.929 7.073-14.547 10.701-69.642 54.652-55.846 37.013-54.19 53.101-1.32 11.118-7.257 5.767 9.838 19.852 1.778 1.467 32.196 28.028 58.898 44.252v.365c1.78-.816 44.122-29.716 72.527-55.214zM1024.606 1091.481c-3.049-7.579-2.984-7.479-2.984-9.256h-.355c0-14.043 18.789 1.101-42.622-44.92-26.696-20.018-24.279-18.552-26.565-19.606v.725c-3.746 2.186-9.929 7.073-14.547 10.701-69.642 54.652-55.846 37.013-54.19 53.101-1.32 11.118-7.257 5.767 9.838 19.852 1.778 1.467 32.196 28.028 58.898 44.252v.365c1.779-.816 44.122-29.716 72.527-55.214zM1182.5 1091.481c-3.049-7.579-2.984-7.479-2.984-9.256h-.355c0-14.043 18.789 1.101-42.622-44.92-26.696-20.018-24.279-18.552-26.565-19.606v.725c-3.746 2.186-9.929 7.073-14.547 10.701-69.642 54.652-55.846 37.013-54.19 53.101-1.32 11.118-7.257 5.767 9.838 19.852 1.778 1.467 32.196 28.028 58.898 44.252v.365c1.78-.816 44.122-29.716 72.527-55.214zM820.749 405.727c-26.696-20.017-24.279-18.552-26.565-19.606v.725c-3.745 2.186-9.929 7.073-14.547 10.701-69.642 54.652-55.846 37.013-54.19 53.101-1.32 11.118-7.257 5.767 9.838 19.852 1.778 1.467 32.196 28.028 58.898 44.252v.365c1.779-.815 44.121-29.715 72.527-55.213-3.049-7.579-2.984-7.479-2.984-9.256h-.355c.001-14.044 18.789 1.1-42.622-44.921zM662.855 405.727c-26.696-20.017-24.279-18.552-26.565-19.606v.725c-3.746 2.186-9.929 7.073-14.547 10.701-69.642 54.652-55.846 37.013-54.19 53.101-1.32 11.118-7.257 5.767 9.838 19.852 1.778 1.467 32.196 28.028 58.898 44.252v.365c1.779-.815 44.121-29.715 72.527-55.213-3.049-7.579-2.984-7.479-2.984-9.256h-.355c0-14.044 18.789 1.1-42.622-44.921zM242.163 1097.346c-.769 0-32.815 24.61-33.433 25.068-44.219 32.778-38.804 28.08-36.872 33.959 3.797 11.592-5.461 9.409 1.838 16.404 5.532 5.313 63.608 54.698 70.935 50.315 4.219-2.52 68.775-48.156 68.775-54.162 0-4.747-5.624-3.33 1.047-16.328-8.685-8.238-72.057-55.256-72.29-55.256zM393.028 1091.481c-3.049-7.579-2.984-7.479-2.984-9.256h-.355c0-14.043 18.789 1.101-42.622-44.92-26.696-20.018-24.279-18.552-26.565-19.606v.725c-3.746 2.186-9.929 7.073-14.547 10.701-69.642 54.652-55.846 37.013-54.19 53.101-1.32 11.118-7.257 5.767 9.838 19.852 1.778 1.467 32.196 28.028 58.898 44.252v.365c1.779-.816 44.122-29.716 72.527-55.214zM504.96 405.727c-26.696-20.017-24.279-18.552-26.565-19.606v.725c-3.746 2.186-9.929 7.073-14.547 10.701-69.642 54.652-55.846 37.013-54.19 53.101-1.32 11.118-7.257 5.767 9.838 19.852 1.779 1.467 32.196 28.028 58.898 44.252v.365c1.779-.815 44.122-29.715 72.527-55.213-3.049-7.579-2.984-7.479-2.984-9.256h-.355c.001-14.044 18.789 1.1-42.622-44.921zM400.057 1097.346c-.769 0-32.815 24.61-33.433 25.068-44.219 32.778-38.804 28.08-36.872 33.959 3.797 11.592-5.461 9.409 1.838 16.404 5.532 5.313 63.608 54.698 70.935 50.315 4.219-2.52 68.775-48.156 68.775-54.162 0-4.747-5.624-3.33 1.047-16.328-8.684-8.238-72.057-55.256-72.29-55.256zM550.922 1091.481c-3.049-7.579-2.984-7.479-2.984-9.256h-.355c0-14.043 18.789 1.101-42.622-44.92-26.696-20.018-24.279-18.552-26.565-19.606v.725c-3.746 2.186-9.929 7.073-14.547 10.701-69.642 54.652-55.846 37.013-54.19 53.101-1.32 11.118-7.257 5.767 9.838 19.852 1.779 1.467 32.196 28.028 58.898 44.252v.365c1.78-.816 44.122-29.716 72.527-55.214zM1208.97 1102.078c1.615 1.332 26.855 23.364 51.479 39.551 10.248-34.209 26.847-65.718 45.614-95.617-3.518-2.632-7.376-5.517-11.631-8.706-26.696-20.018-24.279-18.552-26.565-19.606v.725c-3.745 2.186-9.929 7.073-14.547 10.701-69.642 54.652-55.846 37.013-54.19 53.101-1.319 11.117-7.255 5.765 9.84 19.851zM866.711 1249.376c-3.049-7.579-2.984-7.479-2.984-9.256h-.355c0-14.043 18.789 1.102-42.623-44.92-26.696-20.017-24.279-18.552-26.565-19.606v.725c-3.745 2.186-9.929 7.073-14.547 10.701-69.642 54.652-55.846 37.013-54.19 53.101-1.32 11.118-7.257 5.767 9.838 19.852 1.778 1.467 32.196 28.028 58.898 44.252v.365c1.781-.816 44.123-29.716 72.528-55.214zM708.817 1249.376c-3.049-7.579-2.984-7.479-2.984-9.256h-.355c0-14.043 18.789 1.102-42.622-44.92-26.696-20.017-24.279-18.552-26.565-19.606v.725c-3.746 2.186-9.929 7.073-14.547 10.701-69.642 54.652-55.846 37.013-54.19 53.101-1.32 11.118-7.257 5.767 9.838 19.852 1.778 1.467 32.196 28.028 58.898 44.252v.365c1.779-.816 44.122-29.716 72.527-55.214zM261.603 312.604c1.778 1.467 32.196 28.028 58.898 44.252v.365c1.779-.815 44.121-29.715 72.527-55.213-3.049-7.578-2.984-7.479-2.984-9.256h-.355c0-14.043 18.789 1.101-42.622-44.92-26.696-20.017-24.279-18.552-26.565-19.606v.725c-3.746 2.186-9.929 7.073-14.547 10.701-1.9 1.491-3.727 2.918-5.504 4.304a492.135 492.135 0 00-41.552 66.422l2.704 2.226zM550.922 1249.376c-3.049-7.579-2.984-7.479-2.984-9.256h-.355c0-14.043 18.789 1.102-42.622-44.92-26.696-20.017-24.279-18.552-26.565-19.606v.725c-3.746 2.186-9.929 7.073-14.547 10.701-69.642 54.652-55.846 37.013-54.19 53.101-1.32 11.118-7.257 5.767 9.838 19.852 1.779 1.467 32.196 28.028 58.898 44.252v.365c1.78-.816 44.122-29.716 72.527-55.214zM1024.606 1249.376c-3.049-7.579-2.984-7.479-2.984-9.256h-.355c0-14.043 18.789 1.102-42.622-44.92-26.696-20.017-24.279-18.552-26.565-19.606v.725c-3.746 2.186-9.929 7.073-14.547 10.701-69.642 54.652-55.846 37.013-54.19 53.101-1.32 11.118-7.257 5.767 9.838 19.852 1.778 1.467 32.196 28.028 58.898 44.252v.365c1.779-.816 44.122-29.716 72.527-55.214zM400.057 1255.24c-.769 0-32.815 24.61-33.433 25.068-44.219 32.778-38.804 28.08-36.872 33.958 3.797 11.592-5.461 9.409 1.838 16.404 5.532 5.313 63.608 54.698 70.935 50.315 4.219-2.52 68.775-48.156 68.775-54.162 0-4.747-5.624-3.33 1.047-16.328-8.684-8.236-72.057-55.255-72.29-55.255zM393.028 1249.376c-3.049-7.579-2.984-7.479-2.984-9.256h-.355c0-14.043 18.789 1.102-42.622-44.92-26.696-20.017-24.279-18.552-26.565-19.606v.725c-3.746 2.186-9.929 7.073-14.547 10.701-69.642 54.652-55.846 37.013-54.19 53.101-1.32 11.118-7.257 5.767 9.838 19.852 1.778 1.467 32.196 28.028 58.898 44.252v.365c1.779-.816 44.122-29.716 72.527-55.214zM242.163 1255.24c-.769 0-32.815 24.61-33.433 25.068-44.219 32.778-38.804 28.08-36.872 33.958 3.797 11.592-5.461 9.409 1.838 16.404 5.532 5.313 63.608 54.698 70.935 50.315 4.219-2.52 68.775-48.156 68.775-54.162 0-4.747-5.624-3.33 1.047-16.328-8.685-8.236-72.057-55.255-72.29-55.255zM390.918 1419.732c6.108.053 12.217.101 18.327.148-5.551-4.118-9.133-6.745-9.188-6.745-.261 0-4.126 2.836-9.139 6.597zM708.817 1091.481c-3.049-7.579-2.984-7.479-2.984-9.256h-.355c0-14.043 18.789 1.101-42.622-44.92-26.696-20.018-24.279-18.552-26.565-19.606v.725c-3.746 2.186-9.929 7.073-14.547 10.701-69.642 54.652-55.846 37.013-54.19 53.101-1.32 11.118-7.257 5.767 9.838 19.852 1.778 1.467 32.196 28.028 58.898 44.252v.365c1.779-.816 44.122-29.716 72.527-55.214zM876.209 1380.986c4.219-2.52 68.775-48.156 68.775-54.162 0-4.747-5.624-3.33 1.047-16.328-8.684-8.237-72.057-55.256-72.29-55.256-.769 0-32.815 24.61-33.433 25.068-44.219 32.778-38.804 28.08-36.872 33.958 3.797 11.592-5.461 9.409 1.838 16.404 5.532 5.313 63.607 54.699 70.935 50.316zM393.028 1407.271c-3.049-7.579-2.984-7.48-2.984-9.256h-.355c0-14.043 18.789 1.101-42.622-44.92-26.696-20.017-24.279-18.552-26.565-19.606v.725c-3.746 2.186-9.929 7.073-14.547 10.701-69.642 54.652-55.846 37.013-54.19 53.1-1.32 11.119-7.257 5.767 9.838 19.852.141.116.482.407.967.822 38.575.14 77.263.574 115.999.933 5.027-4.118 9.921-8.278 14.459-12.351zM718.314 1380.986c4.219-2.52 68.775-48.156 68.775-54.162 0-4.747-5.624-3.33 1.046-16.328-8.684-8.237-72.057-55.256-72.29-55.256-.769 0-32.815 24.61-33.433 25.068-44.219 32.778-38.804 28.08-36.872 33.958 3.797 11.592-5.461 9.409 1.838 16.404 5.534 5.313 63.609 54.699 70.936 50.316zM547.938 1398.015h-.355c0-14.043 18.789 1.101-42.622-44.92-26.696-20.017-24.279-18.552-26.565-19.606v.725c-3.746 2.186-9.929 7.073-14.547 10.701-69.642 54.652-55.846 37.013-54.19 53.1-1.32 11.119-7.257 5.767 9.838 19.852.258.212 1.132.964 2.491 2.121 27.25.415 52.456 13.103 69.089 33.907 15.107-10.623 40.655-29.399 59.844-46.624-3.048-7.579-2.983-7.48-2.983-9.256zM560.42 1380.986c4.219-2.52 68.775-48.156 68.775-54.162 0-4.747-5.623-3.33 1.047-16.328-8.685-8.237-72.057-55.256-72.29-55.256-.769 0-32.814 24.61-33.433 25.068-44.218 32.778-38.804 28.08-36.872 33.958 3.797 11.592-5.461 9.409 1.838 16.404 5.532 5.313 63.607 54.699 70.935 50.316zM1034.103 1380.986c4.219-2.52 68.775-48.156 68.775-54.162 0-4.747-5.624-3.33 1.047-16.328-8.685-8.237-72.057-55.256-72.29-55.256-.769 0-32.815 24.61-33.433 25.068-44.218 32.778-38.804 28.08-36.872 33.958 3.797 11.592-5.461 9.409 1.838 16.404 5.533 5.313 63.608 54.699 70.935 50.316zM952.079 71.056c-3.746 2.186-9.929 7.073-14.547 10.701-69.642 54.652-55.846 37.013-54.19 53.101-1.32 11.118-7.257 5.767 9.838 19.852 1.778 1.467 32.196 28.028 58.898 44.252v.365c1.779-.815 44.122-29.715 72.527-55.213-3.049-7.578-2.984-7.479-2.984-9.256h-.355c0-14.043 18.789 1.101-42.622-44.92-26.696-20.017-24.279-18.552-26.565-19.606v.724zM1041.237 134.857c-1.32 11.118-7.256 5.767 9.839 19.852 1.778 1.467 32.196 28.028 58.898 44.252v.365c1.779-.815 44.121-29.715 72.526-55.213-3.049-7.578-2.984-7.479-2.984-9.256h-.355c0-14.043 18.789 1.101-42.622-44.92-3.104-2.328-5.8-4.353-8.17-6.138a695.457 695.457 0 00-23.367-9.396c-3.147 2.293-6.67 5.071-9.574 7.353-69.643 54.652-55.847 37.014-54.191 53.101zM1191.998 1380.986c4.219-2.52 68.775-48.156 68.775-54.162 0-4.747-5.624-3.33 1.047-16.328-8.684-8.237-72.057-55.256-72.29-55.256-.769 0-32.815 24.61-33.433 25.068-44.219 32.778-38.804 28.08-36.872 33.958 3.797 11.592-5.461 9.409 1.838 16.404 5.532 5.313 63.607 54.699 70.935 50.316zM1191.998 117.828c.368-.22 1.206-.775 2.411-1.598a634.482 634.482 0 00-38.979-20.255c16.264 12.593 32.872 24.064 36.568 21.853zM1109.974 228.951c-3.746 2.186-9.929 7.073-14.547 10.701-69.642 54.652-55.846 37.013-54.19 53.1-1.32 11.118-7.257 5.767 9.838 19.852 1.778 1.467 32.196 28.028 58.898 44.252v.365c1.779-.815 44.121-29.715 72.526-55.213-3.049-7.578-2.984-7.479-2.984-9.256h-.355c0-14.043 18.789 1.101-42.622-44.92-26.696-20.017-24.279-18.552-26.565-19.606v.725zM1191.998 1223.091c3.404-2.033 46.081-32.131 62.443-46.838.604-10.584 1.764-19.362 3.561-25.971.07-.266.147-.529.218-.794-16-13.221-68.478-52.143-68.69-52.143-.769 0-32.815 24.61-33.433 25.068-44.219 32.778-38.804 28.08-36.872 33.959 3.797 11.592-5.461 9.409 1.838 16.404 5.532 5.313 63.607 54.698 70.935 50.315zM1156.097 175.045c-44.219 32.778-38.804 28.08-36.872 33.959 3.797 11.591-5.461 9.408 1.838 16.404 5.532 5.313 63.608 54.699 70.935 50.315 4.219-2.52 68.775-48.156 68.775-54.162 0-4.747-5.624-3.33 1.047-16.328-8.684-8.237-72.057-55.256-72.29-55.256-.77 0-32.815 24.61-33.433 25.068zM1034.103 1223.091c4.219-2.52 68.775-48.156 68.775-54.162 0-4.747-5.624-3.33 1.047-16.328-8.685-8.237-72.057-55.256-72.29-55.256-.769 0-32.815 24.61-33.433 25.068-44.218 32.778-38.804 28.08-36.872 33.959 3.797 11.592-5.461 9.409 1.838 16.404 5.533 5.313 63.608 54.698 70.935 50.315zM840.308 175.045c-44.219 32.778-38.804 28.08-36.872 33.959 3.797 11.591-5.461 9.408 1.838 16.404 5.532 5.313 63.608 54.699 70.935 50.315 4.219-2.52 68.775-48.156 68.775-54.162 0-4.747-5.624-3.33 1.047-16.328-8.684-8.237-72.057-55.256-72.29-55.256-.77 0-32.815 24.61-33.433 25.068zM524.519 332.939c-44.218 32.778-38.804 28.08-36.872 33.959 3.797 11.591-5.461 9.408 1.838 16.404 5.532 5.313 63.608 54.699 70.935 50.315 4.219-2.52 68.775-48.156 68.775-54.162 0-4.747-5.623-3.33 1.047-16.328-8.685-8.237-72.057-55.256-72.29-55.256-.77.001-32.815 24.61-33.433 25.068zM876.209 1223.091c4.219-2.52 68.775-48.156 68.775-54.162 0-4.747-5.624-3.33 1.047-16.328-8.684-8.237-72.057-55.256-72.29-55.256-.769 0-32.815 24.61-33.433 25.068-44.219 32.778-38.804 28.08-36.872 33.959 3.797 11.592-5.461 9.409 1.838 16.404 5.532 5.313 63.607 54.698 70.935 50.315zM840.308 332.939c-44.219 32.778-38.804 28.08-36.872 33.959 3.797 11.591-5.461 9.408 1.838 16.404 5.532 5.313 63.608 54.699 70.935 50.315 4.219-2.52 68.775-48.156 68.775-54.162 0-4.747-5.624-3.33 1.047-16.328-8.684-8.237-72.057-55.256-72.29-55.256-.77.001-32.815 24.61-33.433 25.068zM1031.635 149.977c-.769 0-32.815 24.61-33.433 25.068-44.218 32.778-38.804 28.08-36.872 33.959 3.797 11.591-5.461 9.408 1.838 16.404 5.532 5.313 63.608 54.699 70.935 50.315 4.219-2.52 68.775-48.156 68.775-54.162 0-4.747-5.624-3.33 1.047-16.328-8.685-8.237-72.057-55.256-72.29-55.256zM682.413 332.939c-44.219 32.778-38.804 28.08-36.872 33.959 3.797 11.591-5.461 9.408 1.838 16.404 5.532 5.313 63.608 54.699 70.935 50.315 4.219-2.52 68.775-48.156 68.775-54.162 0-4.747-5.624-3.33 1.046-16.328-8.684-8.237-72.057-55.256-72.29-55.256-.768.001-32.814 24.61-33.432 25.068zM952.079 228.951c-3.746 2.186-9.929 7.073-14.547 10.701-69.642 54.652-55.846 37.013-54.19 53.1-1.32 11.118-7.257 5.767 9.838 19.852 1.778 1.467 32.196 28.028 58.898 44.252v.365c1.779-.815 44.122-29.715 72.527-55.213-3.049-7.578-2.984-7.479-2.984-9.256h-.355c0-14.043 18.789 1.101-42.622-44.92-26.696-20.017-24.279-18.552-26.565-19.606v.725zM636.29 41.067v.365c.482-.221 3.951-2.51 9.312-6.233a694.036 694.036 0 00-14.007 2.934 240.351 240.351 0 004.695 2.934zM560.42 117.828c4.219-2.52 68.775-48.156 68.775-54.162 0-4.747-5.623-3.33 1.047-16.328-1.45-1.375-4.431-3.836-8.382-6.975-42.268 9.986-81.387 23.544-117.327 40.087 19.362 16.078 50.639 40.517 55.887 37.378zM532.267 1590.176c.304 10.14.075 20.345-.701 30.615h92.148c-18.642-14.97-65.562-49.761-65.763-49.761-.531 0-15.972 11.732-25.684 19.146zM718.314 1223.091c4.219-2.52 68.775-48.156 68.775-54.162 0-4.747-5.624-3.33 1.046-16.328-8.684-8.237-72.057-55.256-72.29-55.256-.769 0-32.815 24.61-33.433 25.068-44.219 32.778-38.804 28.08-36.872 33.959 3.797 11.592-5.461 9.409 1.838 16.404 5.534 5.313 63.609 54.698 70.936 50.315zM645.541 51.109c3.797 11.591-5.461 9.408 1.838 16.404 5.532 5.313 63.608 54.699 70.935 50.315 4.219-2.52 68.775-48.156 68.775-54.162 0-4.747-5.624-3.33 1.046-16.328-3.758-3.564-17.755-14.39-32.445-25.525-32.565 1.609-63.717 5.096-93.453 10.278-22.109 16.431-18.261 14.255-16.696 19.018zM765.686 21.385c8.997 6.805 18.98 13.899 28.498 19.682v.365c.943-.432 13.27-8.747 28.878-20.262-19.577-.56-38.706-.482-57.376.215zM682.413 1596.097c-18.081 13.403-27.86 20.538-32.975 24.694h132.171c-18.642-14.97-65.562-49.761-65.763-49.761-.769 0-32.815 24.609-33.433 25.067zM840.308 1596.097c-18.081 13.403-27.86 20.538-32.976 24.694h132.171c-18.642-14.97-65.562-49.761-65.763-49.761-.769 0-32.814 24.609-33.432 25.067zM1308.871 1599.89c-14.843 10.987-23.246 17.156-27.855 20.901h32.216a2765.89 2765.89 0 01-4.361-20.901zM1156.097 1596.097c-18.081 13.403-27.86 20.538-32.975 24.694h132.171c-18.642-14.97-65.562-49.761-65.762-49.761-.771 0-32.816 24.609-33.434 25.067zM998.202 1596.097c-18.081 13.403-27.86 20.538-32.975 24.694h132.171c-18.642-14.97-65.562-49.761-65.763-49.761-.769 0-32.815 24.609-33.433 25.067zM1191.998 1538.88c4.219-2.52 68.775-48.155 68.775-54.161 0-4.747-5.624-3.33 1.047-16.328-8.684-8.237-72.057-55.256-72.29-55.256-.769 0-32.815 24.61-33.433 25.068-44.219 32.778-38.804 28.08-36.872 33.959 3.797 11.591-5.461 9.408 1.838 16.404 5.532 5.312 63.608 54.699 70.935 50.314zM718.314 1538.88c4.219-2.52 68.775-48.155 68.775-54.161 0-4.747-5.624-3.33 1.046-16.328-8.684-8.237-72.057-55.256-72.29-55.256-.769 0-32.815 24.61-33.433 25.068-44.219 32.778-38.804 28.08-36.872 33.959 3.797 11.591-5.461 9.408 1.838 16.404 5.534 5.312 63.609 54.699 70.936 50.314zM560.42 1538.88c4.219-2.52 68.775-48.155 68.775-54.161 0-4.747-5.623-3.33 1.047-16.328-8.685-8.237-72.057-55.256-72.29-55.256-.769 0-32.814 24.61-33.433 25.068-14.27 10.578-23.366 17.249-29.083 21.636a90.857 90.857 0 015.911 10.101c7.158 14.296 13.05 28.744 17.716 43.341 17.652 13.945 37.296 28.029 41.357 25.599zM547.938 1555.91h-.355c0-12.519 14.931-1.843-25.343-31.988a278.16 278.16 0 019.621 57.326c6.63-5.319 13.148-10.774 19.062-16.083-3.05-7.578-2.985-7.479-2.985-9.255zM524.519 175.045c-44.218 32.778-38.804 28.08-36.872 33.959 3.797 11.591-5.461 9.408 1.838 16.404 5.532 5.313 63.608 54.699 70.935 50.315 4.219-2.52 68.775-48.156 68.775-54.162 0-4.747-5.623-3.33 1.047-16.328-8.685-8.237-72.057-55.256-72.29-55.256-.77 0-32.815 24.61-33.433 25.068zM1034.103 1538.88c4.219-2.52 68.775-48.155 68.775-54.161 0-4.747-5.624-3.33 1.047-16.328-8.685-8.237-72.057-55.256-72.29-55.256-.769 0-32.815 24.61-33.433 25.068-44.218 32.778-38.804 28.08-36.872 33.959 3.797 11.591-5.461 9.408 1.838 16.404 5.533 5.312 63.608 54.699 70.935 50.314zM682.413 175.045c-44.219 32.778-38.804 28.08-36.872 33.959 3.797 11.591-5.461 9.408 1.838 16.404 5.532 5.313 63.608 54.699 70.935 50.315 4.219-2.52 68.775-48.156 68.775-54.162 0-4.747-5.624-3.33 1.046-16.328-8.684-8.237-72.057-55.256-72.29-55.256-.768 0-32.814 24.61-33.432 25.068zM952.079 41.067v.365c.481-.221 3.937-2.5 9.278-6.21a898.866 898.866 0 00-24.18-3.932c4.959 3.461 9.993 6.794 14.902 9.777zM876.209 1538.88c4.219-2.52 68.775-48.155 68.775-54.161 0-4.747-5.624-3.33 1.047-16.328-8.684-8.237-72.057-55.256-72.29-55.256-.769 0-32.815 24.61-33.433 25.068-44.219 32.778-38.804 28.08-36.872 33.959 3.797 11.591-5.461 9.408 1.838 16.404 5.532 5.312 63.608 54.699 70.935 50.314zM834.351 21.562c-37.756 27.944-32.756 23.947-30.916 29.547 3.797 11.591-5.461 9.408 1.838 16.404 5.532 5.313 63.608 54.699 70.935 50.315 4.219-2.52 68.775-48.156 68.775-54.162 0-4.747-5.624-3.33 1.047-16.328-2.894-2.745-11.864-9.798-22.544-17.982a958.72 958.72 0 00-27.706-3.316 973.623 973.623 0 00-61.429-4.478zM255.264 317.525c-16.402 32.89-28.808 67.086-37.175 101.804 12.559 9.19 23.611 16.042 26.542 14.289 4.219-2.52 68.775-48.156 68.775-54.162 0-4.747-5.624-3.33 1.047-16.328-6.184-5.865-40.088-31.388-59.189-45.603zM1313.991 332.939c-44.219 32.778-38.804 28.08-36.872 33.959 3.797 11.591-5.461 9.408 1.838 16.404 5.532 5.313 63.608 54.699 70.935 50.315 4.219-2.52 68.775-48.156 68.775-54.162 0-4.747-5.624-3.33 1.047-16.328-8.685-8.237-72.057-55.256-72.29-55.256-.769.001-32.815 24.61-33.433 25.068zM1267.868 386.845c-3.745 2.186-9.929 7.073-14.547 10.701-69.642 54.652-55.846 37.013-54.19 53.101-1.32 11.118-7.257 5.767 9.838 19.852 1.778 1.467 32.196 28.028 58.898 44.252v.365c1.779-.815 44.121-29.715 72.527-55.213-3.049-7.579-2.984-7.479-2.984-9.256h-.355c0-14.043 18.789 1.101-42.622-44.92-26.696-20.017-24.279-18.552-26.565-19.606v.724zM1366.864 312.604c1.596 1.316 26.244 22.828 50.58 38.955a508.188 508.188 0 00-47.505-80.452c-21.517 15.903-14.101 10.116-12.914 21.644-1.319 11.119-7.256 5.768 9.839 19.853zM1191.998 907.302c4.219-2.52 68.775-48.156 68.775-54.162 0-4.747-5.624-3.33 1.047-16.328-8.684-8.237-72.057-55.256-72.29-55.256-.769 0-32.815 24.61-33.433 25.068-44.219 32.778-38.804 28.08-36.872 33.959 3.797 11.592-5.461 9.408 1.838 16.404 5.532 5.312 63.608 54.698 70.935 50.315zM1156.097 490.834c-44.219 32.778-38.804 28.08-36.872 33.959 3.797 11.592-5.461 9.408 1.838 16.404 5.532 5.313 63.608 54.699 70.935 50.315 4.219-2.52 68.775-48.156 68.775-54.162 0-4.747-5.624-3.33 1.047-16.328-8.684-8.237-72.057-55.256-72.29-55.256-.77.001-32.815 24.61-33.433 25.068zM952.079 544.74c-3.746 2.186-9.929 7.073-14.547 10.701-69.642 54.652-55.846 37.013-54.19 53.1-1.32 11.118-7.257 5.767 9.838 19.852 1.778 1.467 32.196 28.028 58.898 44.252v.365c1.779-.815 44.122-29.715 72.527-55.213-3.049-7.579-2.984-7.479-2.984-9.256h-.355c0-14.043 18.789 1.101-42.622-44.92-26.696-20.017-24.279-18.552-26.565-19.606v.725zM840.308 648.729c-44.219 32.778-38.804 28.08-36.872 33.959 3.797 11.592-5.461 9.409 1.838 16.404 5.532 5.313 63.608 54.699 70.935 50.315 4.219-2.52 68.775-48.156 68.775-54.162 0-4.747-5.624-3.33 1.047-16.328-8.684-8.237-72.057-55.256-72.29-55.256-.77 0-32.815 24.61-33.433 25.068zM1109.974 544.74c-3.746 2.186-9.929 7.073-14.547 10.701-69.642 54.652-55.846 37.013-54.19 53.1-1.32 11.118-7.257 5.767 9.838 19.852 1.778 1.467 32.196 28.028 58.898 44.252v.365c1.779-.815 44.121-29.715 72.526-55.213-3.049-7.579-2.984-7.479-2.984-9.256h-.355c0-14.043 18.789 1.101-42.622-44.92-26.696-20.017-24.279-18.552-26.565-19.606v.725zM1034.103 907.302c4.219-2.52 68.775-48.156 68.775-54.162 0-4.747-5.624-3.33 1.047-16.328-8.685-8.237-72.057-55.256-72.29-55.256-.769 0-32.815 24.61-33.433 25.068-44.218 32.778-38.804 28.08-36.872 33.959 3.797 11.592-5.461 9.408 1.838 16.404 5.533 5.312 63.608 54.698 70.935 50.315zM1031.635 465.767c-.769 0-32.815 24.61-33.433 25.068-44.218 32.778-38.804 28.08-36.872 33.959 3.797 11.592-5.461 9.408 1.838 16.404 5.532 5.313 63.608 54.699 70.935 50.315 4.219-2.52 68.775-48.156 68.775-54.162 0-4.747-5.624-3.33 1.047-16.328-8.685-8.238-72.057-55.256-72.29-55.256zM1031.635 623.661c-.769 0-32.815 24.61-33.433 25.068-44.218 32.778-38.804 28.08-36.872 33.959 3.797 11.592-5.461 9.409 1.838 16.404 5.532 5.313 63.608 54.699 70.935 50.315 4.219-2.52 68.775-48.156 68.775-54.162 0-4.747-5.624-3.33 1.047-16.328-8.685-8.237-72.057-55.256-72.29-55.256zM1357.026 450.646c-1.32 11.118-7.256 5.767 9.839 19.852 1.779 1.467 32.196 28.028 58.898 44.252v.365c1.064-.488 16.637-11.021 35.059-24.863-5.798-33.905-14.547-66.589-26.163-97.835-7.963-6.028-7.334-5.576-8.896-6.296v.725c-3.746 2.186-9.929 7.073-14.547 10.701-69.642 54.651-55.846 37.012-54.19 53.099zM1313.991 648.729c-44.219 32.778-38.804 28.08-36.872 33.959 3.797 11.592-5.461 9.409 1.838 16.404 5.532 5.313 63.608 54.699 70.935 50.315 4.219-2.52 68.775-48.156 68.775-54.162 0-4.747-5.624-3.33 1.047-16.328-8.685-8.237-72.057-55.256-72.29-55.256-.769 0-32.815 24.61-33.433 25.068zM1313.991 490.834c-44.219 32.778-38.804 28.08-36.872 33.959 3.797 11.592-5.461 9.408 1.838 16.404 5.532 5.313 63.608 54.699 70.935 50.315 4.219-2.52 68.775-48.156 68.775-54.162 0-4.747-5.624-3.33 1.047-16.328-8.685-8.237-72.057-55.256-72.29-55.256-.769.001-32.815 24.61-33.433 25.068zM1425.762 544.74c-3.746 2.186-9.929 7.073-14.547 10.701-69.642 54.652-55.846 37.013-54.19 53.1-1.32 11.118-7.257 5.767 9.838 19.852 1.779 1.467 32.196 28.028 58.898 44.252v.365c1.186-.543 20.391-13.564 41.479-29.736 1.772-22.736 2.375-45.125 1.833-67.119-4.783-3.58-10.321-7.718-16.747-12.534-26.696-20.017-24.279-18.552-26.565-19.606v.725zM1435.014 524.793c3.797 11.592-5.461 9.408 1.838 16.404 2.604 2.5 16.847 14.764 31.961 26.589-.903-23.73-3.148-46.987-6.71-69.709-33.577 24.84-28.865 21.313-27.089 26.716zM1267.868 544.74c-3.745 2.186-9.929 7.073-14.547 10.701-69.642 54.652-55.846 37.013-54.19 53.1-1.32 11.118-7.257 5.767 9.838 19.852 1.778 1.467 32.196 28.028 58.898 44.252v.365c1.779-.815 44.121-29.715 72.527-55.213-3.049-7.579-2.984-7.479-2.984-9.256h-.355c0-14.043 18.789 1.101-42.622-44.92-26.696-20.017-24.279-18.552-26.565-19.606v.725zM682.413 648.729c-44.219 32.778-38.804 28.08-36.872 33.959 3.797 11.592-5.461 9.409 1.838 16.404 5.532 5.313 63.608 54.699 70.935 50.315 4.219-2.52 68.775-48.156 68.775-54.162 0-4.747-5.624-3.33 1.046-16.328-8.684-8.237-72.057-55.256-72.29-55.256-.768 0-32.814 24.61-33.432 25.068zM952.079 702.635c-3.746 2.186-9.929 7.073-14.547 10.701-69.642 54.652-55.846 37.013-54.19 53.101-1.32 11.118-7.257 5.767 9.838 19.852 1.778 1.467 32.196 28.028 58.898 44.252v.365c1.779-.815 44.122-29.715 72.527-55.213-3.049-7.579-2.984-7.479-2.984-9.256h-.355c0-14.043 18.789 1.101-42.622-44.92-26.696-20.017-24.279-18.552-26.565-19.606v.724zM1109.974 702.635c-3.746 2.186-9.929 7.073-14.547 10.701-69.642 54.652-55.846 37.013-54.19 53.101-1.32 11.118-7.257 5.767 9.838 19.852 1.778 1.467 32.196 28.028 58.898 44.252v.365c1.779-.815 44.121-29.715 72.526-55.213-3.049-7.579-2.984-7.479-2.984-9.256h-.355c0-14.043 18.789 1.101-42.622-44.92-26.696-20.017-24.279-18.552-26.565-19.606v.724zM1156.097 648.729c-44.219 32.778-38.804 28.08-36.872 33.959 3.797 11.592-5.461 9.409 1.838 16.404 5.532 5.313 63.608 54.699 70.935 50.315 4.219-2.52 68.775-48.156 68.775-54.162 0-4.747-5.624-3.33 1.047-16.328-8.684-8.237-72.057-55.256-72.29-55.256-.77 0-32.815 24.61-33.433 25.068zM718.314 1065.196c4.219-2.52 68.775-48.156 68.775-54.162 0-4.747-5.624-3.33 1.046-16.328-8.684-8.237-72.057-55.256-72.29-55.256-.769 0-32.815 24.61-33.433 25.068-44.219 32.778-38.804 28.08-36.872 33.959 3.797 11.592-5.461 9.409 1.838 16.404 5.534 5.313 63.609 54.699 70.936 50.315zM952.079 386.845c-3.746 2.186-9.929 7.073-14.547 10.701-69.642 54.652-55.846 37.013-54.19 53.101-1.32 11.118-7.257 5.767 9.838 19.852 1.778 1.467 32.196 28.028 58.898 44.252v.365c1.779-.815 44.122-29.715 72.527-55.213-3.049-7.579-2.984-7.479-2.984-9.256h-.355c0-14.043 18.789 1.101-42.622-44.92-26.696-20.017-24.279-18.552-26.565-19.606v.724zM1156.097 332.939c-44.219 32.778-38.804 28.08-36.872 33.959 3.797 11.591-5.461 9.408 1.838 16.404 5.532 5.313 63.608 54.699 70.935 50.315 4.219-2.52 68.775-48.156 68.775-54.162 0-4.747-5.624-3.33 1.047-16.328-8.684-8.237-72.057-55.256-72.29-55.256-.77.001-32.815 24.61-33.433 25.068zM1109.974 386.845c-3.746 2.186-9.929 7.073-14.547 10.701-69.642 54.652-55.846 37.013-54.19 53.101-1.32 11.118-7.257 5.767 9.838 19.852 1.778 1.467 32.196 28.028 58.898 44.252v.365c1.779-.815 44.121-29.715 72.526-55.213-3.049-7.579-2.984-7.479-2.984-9.256h-.355c0-14.043 18.789 1.101-42.622-44.92-26.696-20.017-24.279-18.552-26.565-19.606v.724zM682.413 490.834c-44.219 32.778-38.804 28.08-36.872 33.959 3.797 11.592-5.461 9.408 1.838 16.404 5.532 5.313 63.608 54.699 70.935 50.315 4.219-2.52 68.775-48.156 68.775-54.162 0-4.747-5.624-3.33 1.046-16.328-8.684-8.237-72.057-55.256-72.29-55.256-.768.001-32.814 24.61-33.432 25.068zM1031.635 307.872c-.769 0-32.815 24.61-33.433 25.068-44.218 32.778-38.804 28.08-36.872 33.959 3.797 11.591-5.461 9.408 1.838 16.404 5.532 5.313 63.608 54.699 70.935 50.315 4.219-2.52 68.775-48.156 68.775-54.162 0-4.747-5.624-3.33 1.047-16.328-8.685-8.238-72.057-55.256-72.29-55.256zM840.308 490.834c-44.219 32.778-38.804 28.08-36.872 33.959 3.797 11.592-5.461 9.408 1.838 16.404 5.532 5.313 63.608 54.699 70.935 50.315 4.219-2.52 68.775-48.156 68.775-54.162 0-4.747-5.624-3.33 1.047-16.328-8.684-8.237-72.057-55.256-72.29-55.256-.77.001-32.815 24.61-33.433 25.068zM225.506 1415.615a393.87 393.87 0 009.627-8.344c-3.049-7.579-2.984-7.48-2.984-9.256h-.355c0-14.043 18.789 1.101-42.622-44.92-26.696-20.017-24.279-18.552-26.565-19.606v.725c-3.746 2.186-9.929 7.073-14.547 10.701-3.772 2.96-7.285 5.696-10.583 8.249 20.513 31.667 48.016 51.841 88.029 62.451zM524.519 490.834c-44.218 32.778-38.804 28.08-36.872 33.959 3.797 11.592-5.461 9.408 1.838 16.404 5.532 5.313 63.608 54.699 70.935 50.315 4.219-2.52 68.775-48.156 68.775-54.162 0-4.747-5.623-3.33 1.047-16.328-8.685-8.237-72.057-55.256-72.29-55.256-.77.001-32.815 24.61-33.433 25.068zM235.37 1417.977c1.039.225 2.075.451 3.13.665 3.734 0 7.472.013 11.208.02-4.602-3.409-7.496-5.527-7.545-5.527-.219 0-2.964 1.988-6.793 4.842zM524.519 648.729c-44.218 32.778-38.804 28.08-36.872 33.959 3.797 11.592-5.461 9.409 1.838 16.404 5.532 5.313 63.608 54.699 70.935 50.315 4.219-2.52 68.775-48.156 68.775-54.162 0-4.747-5.623-3.33 1.047-16.328-8.685-8.237-72.057-55.256-72.29-55.256-.77 0-32.815 24.61-33.433 25.068zM400.057 307.872c-.769 0-32.815 24.61-33.433 25.068-44.219 32.778-38.804 28.08-36.872 33.959 3.797 11.591-5.461 9.408 1.838 16.404 5.532 5.313 63.608 54.699 70.935 50.315 4.219-2.52 68.775-48.156 68.775-54.162 0-4.747-5.624-3.33 1.047-16.328-8.684-8.238-72.057-55.256-72.29-55.256zM560.42 1223.091c4.219-2.52 68.775-48.156 68.775-54.162 0-4.747-5.623-3.33 1.047-16.328-8.685-8.237-72.057-55.256-72.29-55.256-.769 0-32.814 24.61-33.433 25.068-44.218 32.778-38.804 28.08-36.872 33.959 3.797 11.592-5.461 9.409 1.838 16.404 5.532 5.313 63.607 54.698 70.935 50.315zM560.42 1065.196c4.219-2.52 68.775-48.156 68.775-54.162 0-4.747-5.623-3.33 1.047-16.328-8.685-8.237-72.057-55.256-72.29-55.256-.769 0-32.814 24.61-33.433 25.068-44.218 32.778-38.804 28.08-36.872 33.959 3.797 11.592-5.461 9.409 1.838 16.404 5.532 5.313 63.608 54.699 70.935 50.315zM1435.014 682.688c3.797 11.592-5.461 9.409 1.838 16.404 1.942 1.864 10.358 9.159 20.777 17.651 3.941-21.588 6.873-42.926 8.807-63.976-38.301 28.349-33.271 24.296-31.422 29.921zM400.057 465.767c-.769 0-32.815 24.61-33.433 25.068-44.219 32.778-38.804 28.08-36.872 33.959 3.797 11.592-5.461 9.408 1.838 16.404 5.532 5.313 63.608 54.699 70.935 50.315 4.219-2.52 68.775-48.156 68.775-54.162 0-4.747-5.624-3.33 1.047-16.328-8.684-8.238-72.057-55.256-72.29-55.256zM1034.103 1065.196c4.219-2.52 68.775-48.156 68.775-54.162 0-4.747-5.624-3.33 1.047-16.328-8.685-8.237-72.057-55.256-72.29-55.256-.769 0-32.815 24.61-33.433 25.068-44.218 32.778-38.804 28.08-36.872 33.959 3.797 11.592-5.461 9.409 1.838 16.404 5.533 5.313 63.608 54.699 70.935 50.315zM876.209 1065.196c4.219-2.52 68.775-48.156 68.775-54.162 0-4.747-5.624-3.33 1.047-16.328-8.684-8.237-72.057-55.256-72.29-55.256-.769 0-32.815 24.61-33.433 25.068-44.219 32.778-38.804 28.08-36.872 33.959 3.797 11.592-5.461 9.409 1.838 16.404 5.532 5.313 63.608 54.699 70.935 50.315zM1191.998 1065.196c4.219-2.52 68.775-48.156 68.775-54.162 0-4.747-5.624-3.33 1.047-16.328-8.684-8.237-72.057-55.256-72.29-55.256-.769 0-32.815 24.61-33.433 25.068-44.219 32.778-38.804 28.08-36.872 33.959 3.797 11.592-5.461 9.409 1.838 16.404 5.532 5.313 63.608 54.699 70.935 50.315zM1295.651 188.623c-24.151 17.915-20.14 15.49-18.532 20.381 3.797 11.591-5.461 9.408 1.838 16.404 5.532 5.313 63.608 54.699 70.935 50.315 1.207-.721 7.35-4.97 15.504-10.807-20.394-27.362-43.673-52.872-69.745-76.293zM1267.868 228.951c-3.745 2.186-9.929 7.073-14.547 10.701-69.642 54.652-55.846 37.013-54.19 53.1-1.32 11.118-7.257 5.767 9.838 19.852 1.778 1.467 32.196 28.028 58.898 44.252v.365c1.779-.815 44.121-29.715 72.527-55.213-3.049-7.578-2.984-7.479-2.984-9.256h-.355c0-14.043 18.789 1.101-42.622-44.92-26.696-20.017-24.279-18.552-26.565-19.606v.725z"/></svg><svg viewBox="0 0 52 52" id="sucess" xmlns="http://www.w3.org/2000/svg"><path d="M26 0C11.664 0 0 11.663 0 26s11.664 26 26 26 26-11.663 26-26S40.336 0 26 0zm0 50C12.767 50 2 39.233 2 26S12.767 2 26 2s24 10.767 24 24-10.767 24-24 24z"/><path d="M38.252 15.336l-15.369 17.29-9.259-7.407a1 1 0 00-1.249 1.562l10 8a.999.999 0 001.373-.117l16-18a1 1 0 10-1.496-1.328z"/></svg></svg>